<svg xmlns="http://www.w3.org/2000/svg" viewBox="0 0 820 750" role="img" aria-labelledby="title desc">
<title id="title">项目上下文恢复</title><desc id="desc">汇总项目事实、任务输入和执行记录，核对报告版本，再继续或重新验证。</desc>
<defs><marker id="arrow" viewBox="0 0 10 10" refX="9" refY="5" markerWidth="7" markerHeight="7" orient="auto-start-reverse"><path d="M 0 0 L 10 5 L 0 10 z" fill="#527273"/></marker></defs>
<style>text{font-family:system-ui,-apple-system,"Segoe UI","PingFang SC","Microsoft YaHei",sans-serif;fill:#173e40;font-size:17px}.title{font-size:25px;font-weight:650}.note{font-size:15px;fill:#516c70}.label{font-size:15px;font-weight:600}</style>
<rect width="820" height="750" rx="16" fill="#f8fbfb"/><text x="32" y="43" class="title">项目上下文恢复</text>
<text x="410" y="78" text-anchor="middle" class="note"><tspan x="410" dy="0">先恢复已记录的项目状态，再核对当前任务。</tspan></text><rect x="22" y="108" width="246" height="80" rx="10" fill="#e9f3f2" stroke="#82aaa6"/><text x="145" y="142.5" text-anchor="middle" class=""><tspan x="145" dy="0">项目事实</tspan><tspan x="145" dy="23">目标 · 状态 · 决策</tspan></text><rect x="287" y="108" width="246" height="80" rx="10" fill="#e9f3f2" stroke="#82aaa6"/><text x="410" y="142.5" text-anchor="middle" class=""><tspan x="410" dy="0">任务与输入</tspan><tspan x="410" dy="23">来源 · 验收关联</tspan></text><rect x="552" y="108" width="246" height="80" rx="10" fill="#e9f3f2" stroke="#82aaa6"/><text x="675" y="142.5" text-anchor="middle" class=""><tspan x="675" dy="0">执行记录</tspan><tspan x="675" dy="23">日志 · 报告 · 快照</tspan></text><rect x="210" y="260" width="400" height="70" rx="10" fill="#e9f3f2" stroke="#82aaa6"/><text x="410" y="289.5" text-anchor="middle" class=""><tspan x="410" dy="0">恢复项目级上下文</tspan><tspan x="410" dy="23">保留原始文件引用</tspan></text><path d="M 410 370 L 585 420 L 410 470 L 235 420 Z" fill="#fff3dd" stroke="#bda36b"/><text x="410" y="425" text-anchor="middle" class=""><tspan x="410" dy="0">报告与任务 / 版本匹配？</tspan></text><rect x="30" y="548" width="345" height="88" rx="10" fill="#e9f3f2" stroke="#82aaa6"/><text x="202.5" y="586.5" text-anchor="middle" class=""><tspan x="202.5" dy="0">核对验收与未决风险</tspan><tspan x="202.5" dy="23">按已记录的下一步继续</tspan></text><rect x="445" y="548" width="345" height="88" rx="10" fill="#fff3dd" stroke="#82aaa6"/><text x="617.5" y="586.5" text-anchor="middle" class=""><tspan x="617.5" dy="0">标记需要确认</tspan><tspan x="617.5" dy="23">检查变更，重新验证</tspan></text><path d="M 145 188 V 224 H 410 V 260" fill="none" stroke="#527273" stroke-width="2" marker-end="url(#arrow)"/><path d="M 410 188 V 260" fill="none" stroke="#527273" stroke-width="2" marker-end="url(#arrow)"/><path d="M 675 188 V 224 H 410" fill="none" stroke="#527273" stroke-width="2" marker-end="url(#arrow)"/><path d="M 410 330 V 370" fill="none" stroke="#527273" stroke-width="2" marker-end="url(#arrow)"/><path d="M 235 420 H 202 V 548" fill="none" stroke="#527273" stroke-width="2" marker-end="url(#arrow)"/><path d="M 585 420 H 617 V 548" fill="none" stroke="#527273" stroke-width="2" marker-end="url(#arrow)"/><text x="159" y="476" text-anchor="middle" class="label"><tspan x="159" dy="0">匹配</tspan></text><text x="713" y="476" text-anchor="middle" class="label"><tspan x="713" dy="0">不匹配 / 缺失</tspan></text><text x="410" y="693" text-anchor="middle" class="note"><tspan x="410" dy="0">报告匹配不等于业务验收通过。</tspan><tspan x="410" dy="23">代码历史由 Git 保留，项目事实和决策仍需持续维护。</tspan></text>
</svg>
